<?xml version="1.0" encoding="UTF-8"?>
<svg width="89px" height="40px" viewBox="0 0 89 40" version="1.1" xmlns="http://www.w3.org/2000/svg" xmlns:xlink="http://www.w3.org/1999/xlink">
    <!-- Generator: Sketch 54.1 (76490) - https://sketchapp.com -->
    <title>Ползунок</title>
    <desc>Created with Sketch.</desc>
    <g id="Page-1" stroke="none" stroke-width="1" fill="none" fill-rule="evenodd">
        <g id="Petuch-Weather" transform="translate(-1512.000000, -756.000000)" fill-rule="nonzero">
            <g id="Ползунок" transform="translate(1512.000000, 756.000000)">
                <rect id="Rectangle" fill="#EFF4FD" x="0" y="0" width="89" height="40" rx="20"></rect>
                <path d="M41,13 L43,13 L43,26 L41,26 L41,13 Z M47,13 L49,13 L49,26 L47,26 L47,13 Z" id="Twix" fill="#D1DAE5"></path>
                <path d="M64.9124892,15.9124892 L64.9124892,24.3124892 L63.1124892,24.3124892 L63.1124892,15.9124892 L63.1124892,14.1124892 L73.3124892,14.1124892 L73.3124892,15.9124892 L64.9124892,15.9124892 Z" id="Arrow-К" fill="#6E7F95" transform="translate(68.212489, 19.212489) rotate(135.000000) translate(-68.212489, -19.212489) "></path>
                <path d="M17.4875108,16.4875108 L17.4875108,24.8875108 L15.6875108,24.8875108 L15.6875108,16.4875108 L15.6875108,14.6875108 L25.8875108,14.6875108 L25.8875108,16.4875108 L17.4875108,16.4875108 Z" id="Arrow-L" fill="#6E7F95" transform="translate(20.787511, 19.787511) rotate(315.000000) translate(-20.787511, -19.787511) "></path>
            </g>
        </g>
    </g>
</svg>